<svg width="24" height="24" viewBox="0 0 24 24" fill="none" xmlns="http://www.w3.org/2000/svg">
<path d="M4.8 2.3A.3.3 0 1 0 4.2 2.7l.4.4c-.5.4-.8.9-.8 1.5 0 1.1.9 2 2 2s2-.9 2-2c0-.6-.3-1.1-.8-1.5l.4-.4a.3.3 0 1 0-.4-.4L6.4 2.7a2 2 0 0 0-.8 0L4.8 2.3Z" fill="currentColor"/>
<path d="M18.2 2.3a.3.3 0 1 1 .6.4l-.4.4c.5.4.8.9.8 1.5 0 1.1-.9 2-2 2s-2-.9-2-2c0-.6.3-1.1.8-1.5l-.4-.4a.3.3 0 1 1 .4-.4l.8-.4a2 2 0 0 1 .8 0l.8.4Z" fill="currentColor"/>
<path d="M10.5 7.5c0-.8.7-1.5 1.5-1.5s1.5.7 1.5 1.5-1.5 4-1.5 4-1.5-3.2-1.5-4Z" fill="currentColor"/>
<path d="M6 8.5c-.3 0-.5.2-.5.5v1c0 .8-.7 1.5-1.5 1.5S2.5 10.8 2.5 10V9c0-.3-.2-.5-.5-.5s-.5.2-.5.5v1c0 1.4 1.1 2.5 2.5 2.5s2.5-1.1 2.5-2.5V9c0-.3-.2-.5-.5-.5Z" fill="currentColor"/>
<path d="M22 8.5c-.3 0-.5.2-.5.5v1c0 .8-.7 1.5-1.5 1.5s-1.5-.7-1.5-1.5V9c0-.3-.2-.5-.5-.5s-.5.2-.5.5v1c0 1.4 1.1 2.5 2.5 2.5s2.5-1.1 2.5-2.5V9c0-.3-.2-.5-.5-.5Z" fill="currentColor"/>
<path d="M11.5 11.5v7c0 .3.2.5.5.5s.5-.2.5-.5v-7c0-.3-.2-.5-.5-.5s-.5.2-.5.5Z" fill="currentColor"/>
</svg>